<svg width="127" height="30" fill="none" xmlns="http://www.w3.org/2000/svg"><path d="M47.797 24.006a7.13 7.13 0 0 1-3.882-1.145L42.602 26H52.76l-1.105-3.104a7.158 7.158 0 0 1-3.86 1.111M56.55 11.385c.287-.885.966-1.326 2.044-1.326 1.08 0 1.755.44 2.042 1.326.084.293.127.596.127.9a.135.135 0 0 1-.04.113.14.14 0 0 1-.113.04h-4.035a.135.135 0 0 1-.144-.092.133.133 0 0 1-.005-.06 3.24 3.24 0 0 1 .123-.901m.026 3.378h7.39a.222.222 0 0 0 .242-.147.217.217 0 0 0 .008-.1 13.116 13.116 0 0 0-.403-3.731 4.626 4.626 0 0 0-1.866-2.515 6.723 6.723 0 0 0-6.684 0 4.592 4.592 0 0 0-1.904 2.54 7.565 7.565 0 0 0-.298 1.308 7.023 7.023 0 0 1 1.678 3.077 6.987 6.987 0 0 1-.021 3.499c.18.165.375.315.582.448a6.251 6.251 0 0 0 3.482.904c2.169 0 3.87-.697 5.17-2.03a.22.22 0 0 0 .086-.174.217.217 0 0 0-.087-.174l-1.69-1.552a.258.258 0 0 0-.374.025 4.018 4.018 0 0 1-2.75 1.049c-1.359 0-2.21-.515-2.546-1.549a2.415 2.415 0 0 1-.149-.74.132.132 0 0 1 .088-.146.135.135 0 0 1 .061-.006M76.935 7.655h-4.968a.226.226 0 0 0-.245.15.22.22 0 0 0-.009.102V10.3a.22.22 0 0 0 .065.186.224.224 0 0 0 .19.062h.63c.1 0 .134.052.1.152l-1.716 5.157h-.049l-1.713-5.131c-.037-.1 0-.152.097-.152h.631a.225.225 0 0 0 .254-.248V7.907a.22.22 0 0 0-.151-.243.226.226 0 0 0-.103-.009h-5.09a.226.226 0 0 0-.246.15.22.22 0 0 0-.009.102V10.3a.22.22 0 0 0 .065.186.224.224 0 0 0 .19.062h.746a.135.135 0 0 1 .149.1l3.277 8.861a.3.3 0 0 0 .302.248h3.154a.3.3 0 0 0 .302-.248l3.247-8.838a.214.214 0 0 1 .18-.127h.705a.222.222 0 0 0 .241-.147.217.217 0 0 0 .009-.1v-2.39a.22.22 0 0 0-.148-.241.226.226 0 0 0-.102-.01M81.13 11.385c.286-.886.967-1.329 2.041-1.326 1.079 0 1.758.44 2.046 1.326.083.293.124.596.123.9a.133.133 0 0 1-.089.146.136.136 0 0 1-.06.006h-4.035a.142.142 0 0 1-.114-.04.138.138 0 0 1-.032-.051c-.007-.02-.01-.04-.007-.06-.002-.305.04-.609.127-.901m.026 3.378h7.386a.226.226 0 0 0 .243-.147.22.22 0 0 0 .01-.1 13.113 13.113 0 0 0-.402-3.731 4.643 4.643 0 0 0-1.866-2.515 6.723 6.723 0 0 0-6.685 0 4.593 4.593 0 0 0-1.903 2.54 9.165 9.165 0 0 0-.41 2.901 8.947 8.947 0 0 0 .425 2.886 4.611 4.611 0 0 0 1.914 2.552 6.251 6.251 0 0 0 3.483.904c2.168 0 3.87-.696 5.169-2.03a.219.219 0 0 0 .064-.271.219.219 0 0 0-.064-.077l-1.691-1.552a.258.258 0 0 0-.373.026 4.025 4.025 0 0 1-2.75 1.048c-1.362 0-2.21-.516-2.546-1.548a2.442 2.442 0 0 1-.153-.741.136.136 0 0 1 .091-.145c.02-.007.041-.01.062-.007M122.058 13.375c-.632-.625-1.687-1.021-3.165-1.19l-1.336-.148a3.314 3.314 0 0 1-1.362-.337.806.806 0 0 1-.374-.715c0-.686.581-1.028 1.743-1.026a4.215 4.215 0 0 1 1.512.226.23.23 0 0 1 .127.2v.741a.215.215 0 0 0 .062.187.218.218 0 0 0 .188.061h2.571a.227.227 0 0 0 .244-.147.216.216 0 0 0 .01-.1V8.532a.332.332 0 0 0-.201-.326 11.213 11.213 0 0 0-4.479-.852c-1.632 0-2.889.342-3.77 1.026a3.4 3.4 0 0 0-1.007 1.256 3.369 3.369 0 0 0-.314 1.574c0 2.2 1.319 3.443 3.956 3.727l1.363.152c.499.011.989.131 1.437.352a.865.865 0 0 1 .373.774c0 .785-.665 1.174-1.993 1.174a5.445 5.445 0 0 1-1.84-.248.177.177 0 0 1-.127-.174v-.904a.224.224 0 0 0-.254-.248h-2.613a.222.222 0 0 0-.188.061.215.215 0 0 0-.065.187v2.804a.325.325 0 0 0 .175.3c1.514.604 3.135.903 4.766.878 1.742 0 3.096-.35 4.061-1.052a3.562 3.562 0 0 0 1.106-1.346 3.524 3.524 0 0 0 .331-1.706 3.462 3.462 0 0 0-.944-2.567M110.82 7.655h-1.567a.135.135 0 0 1-.147-.088c-.006-.02-.009-.04-.006-.06V4.254a.227.227 0 0 0-.149-.241.222.222 0 0 0-.101-.01h-2.986a.226.226 0 0 0-.245.15.22.22 0 0 0-.009.101v3.253c0 .1-.048.148-.153.148h-.746a.226.226 0 0 0-.245.15.22.22 0 0 0-.009.102V10.3a.23.23 0 0 0 .01.1.227.227 0 0 0 .244.148h.746a.134.134 0 0 1 .153.152v5.156c0 1.415.299 2.433.896 3.053.597.62 1.601.928 3.012.926h1.314a.223.223 0 0 0 .241-.151.216.216 0 0 0 .009-.101v-2.467a.215.215 0 0 0-.062-.187.225.225 0 0 0-.188-.062h-.583a1.204 1.204 0 0 1-.88-.263 1.359 1.359 0 0 1-.254-.94V10.71a.126.126 0 0 1 .007-.061.133.133 0 0 1 .085-.084.136.136 0 0 1 .061-.007h1.564a.22.22 0 0 0 .25-.248V7.907a.227.227 0 0 0-.149-.241.223.223 0 0 0-.101-.011M103.654 16.868h-.907a.132.132 0 0 1-.06-.007.135.135 0 0 1-.084-.085.138.138 0 0 1-.005-.06V11.9a4.759 4.759 0 0 0-1.086-3.263 3.851 3.851 0 0 0-3.05-1.24c-1.447-.001-2.49.465-3.127 1.399h-.026v-.89a.22.22 0 0 0-.151-.242.225.225 0 0 0-.103-.01h-4.393a.226.226 0 0 0-.244.15.22.22 0 0 0-.01.103V10.3a.22.22 0 0 0 .066.186.225.225 0 0 0 .188.062h.982a.141.141 0 0 1 .113.04.135.135 0 0 1 .04.112v6.016a.135.135 0 0 1-.04.112.138.138 0 0 1-.113.04h-.982a.226.226 0 0 0-.243.147.22.22 0 0 0-.01.1v2.405a.22.22 0 0 0 .064.186.225.225 0 0 0 .19.062h5.62a.226.226 0 0 0 .189-.062.222.222 0 0 0 .065-.186v-2.404a.221.221 0 0 0-.152-.24.226.226 0 0 0-.102-.008h-.84a.139.139 0 0 1-.146-.091.135.135 0 0 1-.007-.061v-4.153a2.44 2.44 0 0 1 .493-1.615 1.959 1.959 0 0 1 1.405-.59 1.97 1.97 0 0 1 1.406.59c.343.467.512 1.038.477 1.615v4.153a.132.132 0 0 1-.088.145.135.135 0 0 1-.061.007h-.832a.226.226 0 0 0-.19.061.222.222 0 0 0-.064.187v2.404a.22.22 0 0 0 .065.186.224.224 0 0 0 .189.062h5.564a.227.227 0 0 0 .244-.147.216.216 0 0 0 .01-.101v-2.404a.216.216 0 0 0-.065-.187.227.227 0 0 0-.189-.062M27.777 16.868h-.986a.136.136 0 0 1-.112-.04.133.133 0 0 1-.037-.112V7.907a.22.22 0 0 0-.06-.186.224.224 0 0 0-.186-.066h-4.397a.226.226 0 0 0-.24.151.221.221 0 0 0-.01.101V10.3a.217.217 0 0 0 .149.24c.033.01.067.013.101.008h.986a.139.139 0 0 1 .146.091c.007.02.009.04.007.061v4.164a2.425 2.425 0 0 1-.508 1.604 1.705 1.705 0 0 1-1.385.6 1.68 1.68 0 0 1-1.4-.59 2.516 2.516 0 0 1-.466-1.614V7.907a.22.22 0 0 0-.15-.243.226.226 0 0 0-.104-.009H14.74a.225.225 0 0 0-.245.15.22.22 0 0 0-.009.102V10.3a.22.22 0 0 0 .065.186.224.224 0 0 0 .189.062h.982a.139.139 0 0 1 .146.091c.007.02.009.04.007.061v4.816a4.887 4.887 0 0 0 1.045 3.304c.696.825 1.702 1.238 3.015 1.24 1.379 0 2.438-.467 3.177-1.403h.026v.878a.217.217 0 0 0 .148.24c.033.01.068.013.102.008h4.389a.222.222 0 0 0 .241-.148.216.216 0 0 0 .009-.1v-2.419a.216.216 0 0 0-.062-.186.22.22 0 0 0-.188-.062M12.878 7.607a5.098 5.098 0 0 0-1.083-.1 3.087 3.087 0 0 0-1.674.384c-.51.283-.927.705-1.203 1.216h-.023v-1.2a.22.22 0 0 0-.15-.243.226.226 0 0 0-.103-.009H4.256a.226.226 0 0 0-.245.15.22.22 0 0 0-.009.102V10.3a.22.22 0 0 0 .152.24c.033.01.068.013.102.008h.982a.142.142 0 0 1 .113.04.137.137 0 0 1 .04.112v6.016a.136.136 0 0 1-.092.145.139.139 0 0 1-.061.007h-.982a.226.226 0 0 0-.243.147.22.22 0 0 0-.01.1v2.405a.22.22 0 0 0 .151.24c.033.01.068.013.102.008h5.849a.222.222 0 0 0 .24-.147.217.217 0 0 0 .01-.101v-2.404a.217.217 0 0 0-.15-.24.222.222 0 0 0-.1-.008h-1.06a.135.135 0 0 1-.145-.092.132.132 0 0 1-.005-.06v-3.227c0-1.837.815-2.756 2.445-2.756.495.015.987.091 1.463.226.216.052.329-.033.329-.248v-2.83a.265.265 0 0 0-.254-.274M41.594 11.885a4.76 4.76 0 0 0-1.086-3.263 3.848 3.848 0 0 0-3.05-1.24c-1.448-.001-2.49.465-3.127 1.399h-.026v-.874a.221.221 0 0 0-.25-.252h-4.39a.225.225 0 0 0-.24.15.221.221 0 0 0-.01.102V10.3a.216.216 0 0 0 .063.186.22.22 0 0 0 .188.062h.985a.135.135 0 0 1 .144.091c.006.02.008.04.005.06v6.016a.131.131 0 0 1-.037.113.134.134 0 0 1-.112.04h-.985a.222.222 0 0 0-.242.147.216.216 0 0 0-.008.1v2.405a.216.216 0 0 0 .062.186.22.22 0 0 0 .188.062h5.624a.222.222 0 0 0 .241-.148.216.216 0 0 0 .01-.1v-2.404a.216.216 0 0 0-.063-.187.22.22 0 0 0-.188-.062h-.832a.14.14 0 0 1-.114-.039.138.138 0 0 1-.032-.052c-.007-.02-.01-.04-.007-.06v-4.153a2.44 2.44 0 0 1 .492-1.615 1.96 1.96 0 0 1 1.406-.59 1.972 1.972 0 0 1 1.405.59c.345.466.515 1.037.481 1.615v4.152a.137.137 0 0 1-.091.146.14.14 0 0 1-.062.006h-.832a.222.222 0 0 0-.241.148.219.219 0 0 0-.01.1v2.405a.219.219 0 0 0 .251.248h4.154a6.993 6.993 0 0 1 .336-6.364v-1.519Z" fill="#fff"/><path d="M47.797 13.904c-.685 0-1.356.2-1.926.578a3.443 3.443 0 0 0-1.277 1.543 3.412 3.412 0 0 0 .75 3.748 3.487 3.487 0 0 0 3.776.744 3.457 3.457 0 0 0 1.554-1.268 3.42 3.42 0 0 0 .32-3.226 3.462 3.462 0 0 0-3.197-2.122m0 1.481c.39 0 .77.115 1.095.33.324.215.576.52.725.878a1.942 1.942 0 0 1-.427 2.131 1.975 1.975 0 0 1-2.147.424 1.968 1.968 0 0 1-.885-.72 1.946 1.946 0 0 1 .246-2.469c.37-.367.87-.573 1.393-.574M48.551 11.674a.737.737 0 0 0-.46-.684.752.752 0 0 0-.814.16.74.74 0 0 0 .528 1.265.75.75 0 0 0 .527-.217.738.738 0 0 0 .219-.524Z" fill="#EE2359"/></svg>