<svg width="100%" height="100%" viewBox="0 0 8398 1650" version="1.1" xmlns="http://www.w3.org/2000/svg" xmlns:xlink="http://www.w3.org/1999/xlink" xml:space="preserve" xmlns:serif="http://www.serif.com/" style="fill-rule:evenodd;clip-rule:evenodd;stroke-linejoin:round;stroke-miterlimit:2;"><path d="M3725.63,534.987c20.56,-64.063 69.518,-96.12 146.901,-96.12c77.37,0 126.328,32.057 146.901,96.12c6.042,20.586 9.062,42.344 9.062,65.299c0,7.24 -3.619,10.873 -10.885,10.873l-290.156,-0c-7.253,-0 -10.886,-3.633 -10.886,-10.873c0,-22.955 3.008,-44.713 9.063,-65.299m1.823,244.831l531.367,-0c12.07,-0 18.138,-6.042 18.138,-18.125c-0,-118.477 -9.688,-208.568 -29.023,-270.222c-25.378,-78.58 -70.443,-139.336 -135.105,-182.265c-64.687,-42.904 -145.39,-64.375 -242.109,-64.375c-93.112,-0 -172.604,21.471 -238.477,64.375c-65.924,42.929 -111.536,104.271 -136.927,184.075c-9.557,28.685 -16.718,60.352 -21.549,94.922c84.258,91.55 136.133,213.36 136.133,347.578c-0,44.571 -6.263,87.578 -16.927,128.815c12.981,11.758 26.875,22.709 41.992,32.592c66.458,43.541 149.896,65.286 250.26,65.286c155.977,-0 278.347,-50.443 371.784,-146.901c8.307,-8.581 8.438,-16.914 0,-25.378l-121.497,-112.448c-9.701,-7.239 -18.776,-6.627 -27.214,1.823c-56.849,50.769 -122.734,76.159 -197.682,76.159c-97.93,0 -158.998,-37.448 -183.164,-112.422c-7.253,-21.771 -10.886,-39.284 -10.886,-52.604c0,-7.265 3.633,-10.885 10.886,-10.885" style="fill:#6a4a9e;fill-rule:nonzero;"/><path d="M5191.7,264.766l-357.279,-0c-12.096,-0 -18.125,6.067 -18.125,18.151l0,174.101c0,12.084 6.029,18.125 18.125,18.125l45.339,0c7.266,0 9.675,3.62 7.266,10.886l-123.334,371.77l-3.619,0l-123.321,-371.77c-2.435,-7.266 0,-10.886 7.253,-10.886l45.338,0c12.071,0 18.138,-6.041 18.138,-18.125l0,-174.101c0,-12.084 -6.067,-18.151 -18.138,-18.151l-366.328,-0c-12.109,-0 -18.138,6.067 -18.138,18.151l0,174.101c0,12.084 6.029,18.125 18.138,18.125l52.578,0c6.042,0 9.675,2.435 10.886,7.253l235.768,641.992c3.633,12.096 10.872,18.138 21.758,18.138l226.693,0c10.885,0 18.138,-6.042 21.757,-18.138l235.769,-640.169c3.632,-6.042 7.851,-9.076 12.695,-9.076l50.781,0c12.07,0 18.125,-6.041 18.125,-18.125l0,-174.101c0,-12.084 -6.055,-18.151 -18.125,-18.151" style="fill:#6a4a9e;fill-rule:nonzero;"/><path d="M5493.47,534.987c20.547,-64.063 69.505,-96.12 146.901,-96.12c77.357,0 126.315,32.057 146.888,96.12c6.042,20.586 9.062,42.344 9.062,65.299c0,7.24 -3.619,10.873 -10.885,10.873l-290.143,-0c-7.266,-0 -10.886,-3.633 -10.886,-10.873c0,-22.955 2.995,-44.713 9.063,-65.299m1.823,244.831l531.354,-0c12.07,-0 18.151,-6.042 18.151,-18.125c-0,-118.477 -9.701,-208.568 -29.023,-270.222c-25.391,-78.58 -70.443,-139.336 -135.118,-182.265c-64.687,-42.904 -145.39,-64.375 -242.096,-64.375c-93.125,-0 -172.617,21.471 -238.49,64.375c-65.911,42.929 -111.536,104.271 -136.914,184.075c-19.362,58.034 -29.023,128.164 -29.023,210.378c-0,77.383 10.26,146.888 30.833,208.542c25.378,79.804 71.315,141.458 137.826,184.987c66.484,43.541 149.896,65.286 250.26,65.286c155.977,-0 278.347,-50.443 371.784,-146.901c8.307,-8.581 8.451,-16.914 0,-25.378l-121.497,-112.448c-9.701,-7.239 -18.763,-6.627 -27.214,1.823c-56.836,50.769 -122.734,76.159 -197.682,76.159c-97.917,0 -158.998,-37.448 -183.151,-112.422c-7.266,-21.771 -10.886,-39.284 -10.886,-52.604c0,-7.265 3.62,-10.885 10.886,-10.885" style="fill:#6a4a9e;fill-rule:nonzero;"/><path d="M8329.63,679.169c-45.339,-45.338 -121.224,-74.049 -227.604,-86.146l-96.107,-10.885c-48.372,-4.805 -81.016,-12.969 -97.93,-24.479c-16.953,-11.471 -25.39,-28.711 -25.39,-51.68c-0,-49.57 41.705,-74.362 125.13,-74.362c44.713,0 80.989,5.443 108.815,16.328c6.042,3.62 9.062,8.464 9.062,14.506l0,54.414c0,12.083 6.029,18.125 18.138,18.125l184.987,-0c12.071,-0 18.125,-6.042 18.125,-18.125l0,-188.62c0,-10.886 -4.843,-18.724 -14.505,-23.568c-94.297,-41.094 -201.927,-61.68 -322.812,-61.68c-117.279,0 -207.656,24.805 -271.12,74.362c-63.477,49.597 -95.221,117.891 -95.221,204.935c-0,159.597 94.908,249.675 284.726,270.222l97.943,10.885c50.768,4.844 85.234,13.307 103.372,25.378c18.125,12.109 27.201,30.833 27.201,56.224c-0,56.849 -47.774,85.234 -143.268,85.234c-53.23,-0 -97.631,-5.221 -132.396,-18.125c-6.12,-2.279 -9.063,-6.641 -9.063,-12.708l0,-65.274c0,-12.083 -6.067,-18.138 -18.138,-18.138l-188.607,0c-12.096,0 -18.125,6.055 -18.125,18.138l0,203.099c0,9.688 4.206,16.953 12.696,21.771c101.536,42.344 215.794,63.477 342.747,63.477c125.729,-0 223.073,-25.378 291.992,-76.172c68.907,-50.782 103.36,-124.519 103.36,-221.263c-0,-78.568 -22.67,-140.534 -68.008,-185.873" style="fill:#6a4a9e;fill-rule:nonzero;"/><path d="M7548.18,264.766l-112.435,-0c-7.253,-0 -10.872,-3.62 -10.872,-10.873l-0,-235.768c-0,-12.07 -6.081,-18.125 -18.151,-18.125l-215.795,0c-12.109,0 -18.151,6.055 -18.151,18.125l0,235.768c0,7.253 -3.619,10.873 -10.885,10.873l-54.388,-0c-12.109,-0 -18.151,6.067 -18.151,18.151l-0,174.101c-0,12.084 6.042,18.125 18.151,18.125l54.388,0c7.266,0 10.885,3.62 10.885,10.886l0,371.77c0,102.774 21.459,176.55 64.388,221.264c42.904,44.739 115.157,67.083 216.719,67.083l94.297,-0c12.07,-0 18.151,-6.029 18.151,-18.125l0,-177.735c0,-12.07 -6.081,-18.125 -18.151,-18.125l-41.706,0c-30.234,0 -51.406,-6.354 -63.476,-19.049c-12.097,-12.695 -18.125,-35.365 -18.125,-68.008l-0,-359.075c-0,-7.266 3.619,-10.886 10.872,-10.886l112.435,0c12.07,0 18.151,-6.041 18.151,-18.125l0,-174.101c0,-12.084 -6.081,-18.151 -18.151,-18.151" style="fill:#6a4a9e;fill-rule:nonzero;"/><path d="M7059.26,932.16l-65.273,0c-7.266,0 -10.886,-3.62 -10.886,-10.885l0,-350.013c0,-97.93 -26.015,-176.823 -77.981,-236.667c-52.006,-59.844 -125.131,-89.766 -219.44,-89.766c-103.998,0 -178.946,33.855 -224.883,101.55l-1.823,-0l-0,-63.464c-0,-12.083 -6.055,-18.151 -18.125,-18.151l-315.56,0c-12.096,0 -18.138,6.068 -18.138,18.151l-0,174.102c-0,12.083 6.042,18.125 18.138,18.125l70.729,-0c7.266,-0 10.886,3.62 10.886,10.885l-0,435.248c-0,7.265 -3.62,10.885 -10.886,10.885l-70.729,0c-12.096,0 -18.138,6.055 -18.138,18.138l-0,174.089c-0,12.096 6.042,18.138 18.138,18.138l404.427,-0c12.057,-0 18.138,-6.042 18.138,-18.138l0,-174.089c0,-12.083 -6.081,-18.138 -18.138,-18.138l-59.857,0c-7.239,0 -10.885,-3.62 -10.885,-10.885l-0,-301.042c-0,-49.57 11.797,-88.555 35.377,-116.979c23.581,-28.386 57.123,-42.617 100.652,-42.617c44.713,-0 78.567,14.231 101.562,42.617c22.956,28.424 34.453,67.409 34.453,116.979l0,301.042c0,7.265 -3.633,10.885 -10.872,10.885l-59.87,0c-12.083,0 -18.125,6.055 -18.125,18.138l-0,174.089c-0,12.096 6.042,18.138 18.125,18.138l398.984,-0c12.084,-0 18.151,-6.042 18.151,-18.138l0,-174.089c0,-12.083 -6.067,-18.138 -18.151,-18.138" style="fill:#6a4a9e;fill-rule:nonzero;"/><path d="M1682.96,932.16l-70.73,0c-7.252,0 -10.885,-3.62 -10.885,-10.885l-0,-638.36c-0,-12.083 -6.068,-18.151 -18.138,-18.151l-315.56,0c-12.096,0 -18.125,6.068 -18.125,18.151l0,174.102c0,12.083 6.029,18.125 18.125,18.125l70.729,-0c7.266,-0 10.886,3.62 10.886,10.885l-0,301.042c-0,48.372 -12.097,87.057 -36.276,116.068c-24.193,29.023 -57.435,43.515 -99.727,43.515c-44.753,0 -78.307,-14.192 -100.651,-42.604c-22.396,-28.398 -33.568,-67.383 -33.568,-116.979l0,-504.154c0,-12.083 -6.054,-18.151 -18.125,-18.151l-315.56,0c-12.109,0 -18.138,6.068 -18.138,18.151l0,174.102c0,12.083 6.029,18.125 18.138,18.125l70.73,-0c7.239,-0 10.885,3.62 10.885,10.885l-0,350.013c-0,97.93 25.078,176.81 75.26,236.667c50.157,59.857 122.409,89.766 216.719,89.766c99.115,-0 175.287,-33.828 228.503,-101.55l1.81,0l-0,63.464c-0,12.096 6.028,18.138 18.138,18.138l315.56,-0c12.07,-0 18.138,-6.042 18.138,-18.138l-0,-174.089c-0,-12.083 -6.068,-18.138 -18.138,-18.138" style="fill:#6a4a9e;fill-rule:nonzero;"/><path d="M638.359,261.142c-21.744,-4.818 -47.76,-7.253 -77.968,-7.253c-94.31,0 -163.217,38.711 -206.758,116.068l-1.81,0l-0,-87.044c-0,-12.071 -6.055,-18.151 -18.138,-18.151l-315.547,-0c-12.109,-0 -18.138,6.08 -18.138,18.151l0,174.101c0,12.097 6.029,18.125 18.138,18.125l70.729,0c7.24,0 10.886,3.62 10.886,10.886l-0,435.247c-0,7.266 -3.646,10.886 -10.886,10.886l-70.729,-0c-12.109,-0 -18.138,6.054 -18.138,18.138l0,174.088c0,12.109 6.029,18.138 18.138,18.138l420.729,0c12.084,0 18.151,-6.029 18.151,-18.138l0,-174.088c0,-12.084 -6.067,-18.138 -18.151,-18.138l-76.159,-0c-7.265,-0 -10.885,-3.62 -10.885,-10.886l-0,-233.945c-0,-132.982 58.646,-199.492 175.911,-199.492c29.011,-0 64.076,5.442 105.196,16.328c15.69,3.62 23.58,-2.409 23.58,-18.138l0,-204.922c0,-10.886 -6.067,-17.526 -18.151,-19.961" style="fill:#6a4a9e;fill-rule:nonzero;"/><path d="M2649.91,571.258c-0,-97.93 -26.016,-176.823 -77.982,-236.667c-51.992,-59.844 -125.13,-89.765 -219.44,-89.765c-103.998,-0 -178.945,33.854 -224.87,101.549l-1.81,0l0,-63.464c0,-12.07 -6.081,-18.151 -18.151,-18.151l-315.547,0c-12.109,0 -18.138,6.081 -18.138,18.151l0,174.102c0,12.096 6.029,18.125 18.138,18.125l70.716,0c7.266,0 10.886,3.62 10.886,10.885l-0,435.248c-0,7.265 -3.62,10.885 -10.886,10.885l-70.716,0c-12.109,0 -18.138,6.055 -18.138,18.138l0,174.089c0,12.109 6.029,18.151 18.138,18.151l404.427,-0c12.058,-0 18.125,-6.042 18.125,-18.151l0,-174.089c0,-12.083 -6.067,-18.138 -18.125,-18.138l-59.869,0c-7.24,0 -10.86,-3.62 -10.86,-10.885l0,-301.042c0,-49.557 11.771,-88.555 35.352,-116.979c23.567,-28.385 57.122,-42.617 100.651,-42.617c44.713,-0 78.581,14.232 101.562,42.617c22.956,28.424 34.466,67.422 34.466,116.979l0,301.042c0,7.265 -3.645,10.885 -10.885,10.885l-59.857,0c-12.096,0 -18.138,6.055 -18.138,18.138l0,174.089c0,12.109 6.042,18.151 18.138,18.151l298.568,-0c-27.878,-63.307 -43.62,-133.151 -43.62,-206.745c0,-92.721 24.909,-179.479 67.865,-254.583l-0,-109.948Z" style="fill:#6a4a9e;fill-rule:nonzero;"/><path d="M3095.98,717.552c-137.526,0 -249.011,111.484 -249.011,249.011c0,137.513 111.485,248.997 249.011,248.997c137.526,-0 248.997,-111.484 248.997,-248.997c0,-137.527 -111.471,-249.011 -248.997,-249.011m-0,107.37c78.099,-0 141.627,63.529 141.627,141.641c0,78.098 -63.528,141.614 -141.627,141.614c-78.099,0 -141.628,-63.516 -141.628,-141.614c0,-78.112 63.529,-141.641 141.628,-141.641" style="fill:#ee265a;fill-rule:nonzero;"/><path d="M3150.35,555.789c0,-30.039 -24.349,-54.375 -54.375,-54.375c-30.026,0 -54.375,24.336 -54.375,54.375c0,30.026 24.349,54.375 54.375,54.375c30.026,0 54.375,-24.349 54.375,-54.375" style="fill:#ee265a;fill-rule:nonzero;"/><path d="M3483.61,1649.36l-100.143,-285.052c-81.536,54.401 -179.414,86.211 -284.778,86.211c-100.326,-0 -193.62,-29.193 -272.722,-78.881l-115.482,277.722l773.125,-0Z" style="fill:#6a4a9e;fill-rule:nonzero;"/></svg>